<svg width="512" height="512" viewBox="0 0 512 512" xmlns="http://www.w3.org/2000/svg">
  <rect width="512" height="512" rx="120" fill="#1D6EEA"/>
  <path d="M352 160c0 70.692-57.308 128-128 128S96 230.692 96 160 153.308 32 224 32s128 57.308 128 128z" fill="#fff"/>
  <path d="M176 448c-44.183 0-80-35.817-80-80V80c0-44.183 35.817-80 80-80h160c44.183 0 80 35.817 80 80v288c0 44.183-35.817 80-80 80H176z" fill="#1D6EEA"/>
  <path d="M362 248 448 320l-84 36-20 72-62-140 80-40z" fill="#F47B20"/>
  <path d="m302 236 82 122-62-20-20 72-54-118 54-56z" fill="#fff" opacity=".85"/>
  <path d="M176 352c70.692 0 128 28.654 128 64s-57.308 64-128 64S48 451.346 48 416s57.308-64 128-64z" fill="#1D6EEA"/>
</svg>

