<svg width="680" height="520" viewBox="0 0 680 520" xmlns="http://www.w3.org/2000/svg">
  <rect width="680" height="520" rx="48" fill="#F5F8FE"/>
  <rect x="80" y="60" width="200" height="400" rx="36" fill="#FFFFFF" stroke="#E2E8F0" stroke-width="2"/>
  <rect x="120" y="120" width="120" height="36" rx="12" fill="#1D6EEA" opacity=".1"/>
  <rect x="120" y="180" width="120" height="36" rx="12" fill="#1D6EEA" opacity=".15"/>
  <rect x="110" y="250" width="140" height="44" rx="16" fill="#F47B20"/>
  <rect x="110" y="320" width="140" height="90" rx="18" fill="#F9FBFF" stroke="#E2E8F0" stroke-width="2"/>
  <rect x="320" y="40" width="220" height="440" rx="48" fill="#1D6EEA"/>
  <rect x="356" y="120" width="148" height="160" rx="28" fill="#FFFFFF"/>
  <rect x="350" y="330" width="156" height="38" rx="16" fill="#F47B20"/>
  <rect x="350" y="390" width="156" height="38" rx="16" fill="#FFFFFF" opacity=".4"/>
  <circle cx="430" cy="80" r="16" fill="#FFFFFF" opacity=".4"/>
  <circle cx="430" cy="200" r="58" fill="#1D6EEA" opacity=".12"/>
  <rect x="560" y="140" width="44" height="240" rx="20" fill="#1D6EEA" opacity=".35"/>
</svg>

